<svg width="30" height="30" viewBox="0 0 30 30" fill="none" xmlns="http://www.w3.org/2000/svg">
<rect width="30" height="30" rx="7" fill="black"/>
<path d="M10.8785 23C10.4865 23 10.1365 22.881 9.8285 22.643C9.5205 22.391 9.3665 22.083 9.3665 21.719V9.581C9.3665 9.217 9.4855 8.916 9.7235 8.678C9.9755 8.426 10.2835 8.3 10.6475 8.3H16.6955C17.4235 8.3 18.1025 8.496 18.7325 8.888C19.3765 9.266 19.8945 9.798 20.2865 10.484C20.6785 11.156 20.8745 11.933 20.8745 12.815C20.8745 13.347 20.7625 13.865 20.5385 14.369C20.3285 14.873 20.0345 15.328 19.6565 15.734C19.2925 16.14 18.8795 16.455 18.4175 16.679L18.4385 16.196C18.8305 16.406 19.1525 16.658 19.4045 16.952C19.6705 17.232 19.8735 17.54 20.0135 17.876C20.1675 18.198 20.2585 18.548 20.2865 18.926C20.3425 19.276 20.3775 19.584 20.3915 19.85C20.4195 20.116 20.4615 20.34 20.5175 20.522C20.5875 20.704 20.7135 20.844 20.8955 20.942C21.2035 21.124 21.3925 21.39 21.4625 21.74C21.5465 22.076 21.4695 22.377 21.2315 22.643C21.0775 22.825 20.8815 22.944 20.6435 23C20.4055 23.042 20.1675 23.042 19.9295 23C19.6915 22.944 19.4955 22.874 19.3415 22.79C19.1035 22.65 18.8655 22.447 18.6275 22.181C18.3895 21.901 18.1935 21.53 18.0395 21.068C17.8995 20.606 17.8295 20.011 17.8295 19.283C17.8295 19.045 17.7875 18.828 17.7035 18.632C17.6195 18.422 17.5005 18.247 17.3465 18.107C17.1925 17.953 16.9965 17.841 16.7585 17.771C16.5205 17.687 16.2405 17.645 15.9185 17.645H11.6765L11.9915 17.162V21.719C11.9915 22.083 11.8935 22.391 11.6975 22.643C11.5015 22.881 11.2285 23 10.8785 23ZM11.6975 15.482H16.5905C16.8425 15.482 17.0875 15.37 17.3255 15.146C17.5635 14.908 17.7595 14.593 17.9135 14.201C18.0675 13.795 18.1445 13.354 18.1445 12.878C18.1445 12.262 17.9765 11.751 17.6405 11.345C17.3185 10.925 16.9685 10.715 16.5905 10.715H11.7395L11.9915 10.043V15.986L11.6975 15.482Z" fill="white"/>
</svg>
