<?xml version="1.0" encoding="UTF-8" standalone="no"?>
<svg
   xmlns:dc="http://purl.org/dc/elements/1.1/"
   xmlns:cc="http://creativecommons.org/ns#"
   xmlns:rdf="http://www.w3.org/1999/02/22-rdf-syntax-ns#"
   xmlns:svg="http://www.w3.org/2000/svg"
   xmlns="http://www.w3.org/2000/svg"
   xmlns:sodipodi="http://sodipodi.sourceforge.net/DTD/sodipodi-0.dtd"
   xmlns:inkscape="http://www.inkscape.org/namespaces/inkscape"
   width="66.450226mm"
   height="7.9374747mm"
   viewBox="0 0 67 8"
   version="1.1"
   id="svg8"
   inkscape:version="1.0.1 (c497b03c, 2020-09-10)"
   sodipodi:docname="logo-3.svg">
  <defs
     id="defs2" />
  <sodipodi:namedview
     id="base"
     pagecolor="#ffffff"
     bordercolor="#666666"
     borderopacity="1.0"
     inkscape:pageopacity="0.0"
     inkscape:pageshadow="2"
     inkscape:zoom="1.7725174"
     inkscape:cx="129.06815"
     inkscape:cy="80.747687"
     inkscape:document-units="mm"
     inkscape:current-layer="layer1"
     inkscape:document-rotation="0"
     showgrid="false"
     fit-margin-top="0"
     fit-margin-left="0"
     fit-margin-right="0"
     fit-margin-bottom="0"
     inkscape:window-width="1252"
     inkscape:window-height="847"
     inkscape:window-x="0"
     inkscape:window-y="25"
     inkscape:window-maximized="0" />
  <metadata
     id="metadata5">
    <rdf:RDF>
      <cc:Work
         rdf:about="">
        <dc:format>image/svg+xml</dc:format>
        <dc:type
           rdf:resource="http://purl.org/dc/dcmitype/StillImage" />
        <dc:title></dc:title>
      </cc:Work>
    </rdf:RDF>
  </metadata>
  <g
     inkscape:label="Layer 1"
     inkscape:groupmode="layer"
     id="layer1"
     transform="translate(-39.32117,-89.29078)">
    <g
       aria-label="RatedRentals"
       id="text835"
       style="font-style:normal;font-weight:normal;font-size:10.5833px;line-height:1.25;font-family:sans-serif;fill:#000000;fill-opacity:1;stroke:none;stroke-width:0.264583">
      <path
         d="m 39.681002,97.122421 q -0.158749,0 -0.264582,-0.09525 -0.09525,-0.09525 -0.09525,-0.22225 v -6.773311 q 0,-0.127 0.09525,-0.22225 0.09525,-0.09525 0.222249,-0.09525 h 2.857491 q 0.603248,0 1.079496,0.264582 0.476249,0.253999 0.740831,0.709081 0.275166,0.455082 0.275166,1.02658 0,0.465665 -0.169333,0.857247 -0.169332,0.391583 -0.476248,0.666748 -0.306916,0.264583 -0.687915,0.391582 l -0.370415,-0.116416 q 0.391582,0.03175 0.730248,0.253999 0.338665,0.211666 0.539748,0.592665 0.211666,0.370416 0.222249,0.899581 0.01058,0.455081 0.04233,0.709081 0.04233,0.253999 0.116417,0.380998 0.07408,0.127 0.190499,0.201083 0.105833,0.0635 0.137583,0.179916 0.04233,0.116416 -0.02117,0.222249 -0.04233,0.08467 -0.126999,0.127 -0.07408,0.03175 -0.15875,0.03175 -0.08467,0 -0.169333,-0.04233 -0.148166,-0.08467 -0.306915,-0.264583 -0.148166,-0.179916 -0.253999,-0.529165 -0.09525,-0.349249 -0.09525,-0.973663 0,-0.412749 -0.137583,-0.677331 -0.127,-0.264583 -0.338666,-0.402166 -0.201082,-0.148166 -0.455082,-0.201083 -0.243415,-0.0635 -0.465665,-0.0635 h -2.465909 l 0.116417,-0.148167 v 2.995074 q 0,0.127 -0.08467,0.22225 -0.08467,0.09525 -0.222249,0.09525 z m 0.190499,-3.746488 h 2.656409 q 0.359832,-0.03175 0.677331,-0.232832 0.317499,-0.211666 0.507998,-0.571499 0.201083,-0.359832 0.201083,-0.83608 0,-0.603248 -0.412749,-0.99483 -0.402165,-0.402166 -1.05833,-0.402166 h -2.529408 l 0.07408,-0.148166 v 3.333739 z"
         style="font-style:normal;font-variant:normal;font-weight:normal;font-stretch:normal;font-family:Quicksand;-inkscape-font-specification:Quicksand;stroke-width:0.264583"
         id="path901" />
      <path
         d="m 50.685815,91.714355 q 0.137582,0 0.222249,0.09525 0.09525,0.09525 0.09525,0.232832 v 4.762485 q 0,0.127 -0.09525,0.22225 -0.09525,0.09525 -0.222249,0.09525 -0.148167,0 -0.232833,-0.09525 -0.08467,-0.09525 -0.08467,-0.22225 V 95.54551 l 0.179916,-0.08467 q 0,0.296333 -0.169333,0.603248 -0.15875,0.306916 -0.444499,0.571498 -0.285749,0.264583 -0.677331,0.433916 -0.380999,0.158749 -0.836081,0.158749 -0.709081,0 -1.280579,-0.370415 -0.560915,-0.370416 -0.888997,-1.015997 -0.317499,-0.645581 -0.317499,-1.449912 0,-0.825497 0.328082,-1.449912 0.328083,-0.634998 0.888997,-0.99483 0.560915,-0.359832 1.259413,-0.359832 0.455082,0 0.846664,0.158749 0.402165,0.15875 0.698498,0.433915 0.296332,0.275166 0.465665,0.634998 0.169333,0.349249 0.169333,0.730248 l -0.222249,-0.15875 v -1.344079 q 0,-0.137582 0.08467,-0.232832 0.08467,-0.09525 0.232833,-0.09525 z m -2.201327,4.921234 q 0.560915,0 0.99483,-0.285749 0.433916,-0.296332 0.677332,-0.80433 0.253999,-0.518582 0.253999,-1.15358 0,-0.624415 -0.253999,-1.12183 -0.243416,-0.497415 -0.677332,-0.793747 -0.433915,-0.296333 -0.99483,-0.296333 -0.550331,0 -0.99483,0.285749 -0.433915,0.28575 -0.687914,0.783165 -0.243416,0.497415 -0.243416,1.142996 0,0.634998 0.243416,1.15358 0.243415,0.507998 0.677331,0.80433 0.444498,0.285749 1.005413,0.285749 z"
         style="font-style:normal;font-variant:normal;font-weight:normal;font-stretch:normal;font-family:Quicksand;-inkscape-font-specification:Quicksand;stroke-width:0.264583"
         id="path903" />
      <path
         d="m 52.311012,91.735522 h 2.465909 q 0.127,0 0.211666,0.09525 0.08467,0.08467 0.08467,0.211666 0,0.116417 -0.08467,0.201083 -0.08467,0.08467 -0.211666,0.08467 h -2.465909 q -0.126999,0 -0.222249,-0.08467 -0.08467,-0.09525 -0.08467,-0.211666 0,-0.126999 0.08467,-0.211666 0.09525,-0.08467 0.222249,-0.08467 z m 1.09008,-1.492245 q 0.137583,0 0.22225,0.09525 0.09525,0.09525 0.09525,0.222249 v 5.312817 q 0,0.296332 0.07408,0.444498 0.08467,0.148167 0.211666,0.201083 0.127,0.04233 0.254,0.04233 0.08467,0 0.148166,-0.02117 0.07408,-0.03175 0.158749,-0.03175 0.09525,0 0.15875,0.07408 0.07408,0.07408 0.07408,0.190499 0,0.148167 -0.169333,0.254 -0.169333,0.09525 -0.402165,0.09525 -0.09525,0 -0.285749,-0.01058 -0.1905,-0.02117 -0.391583,-0.116416 -0.201082,-0.105833 -0.338665,-0.359833 -0.127,-0.253999 -0.127,-0.730247 v -5.344567 q 0,-0.126999 0.08467,-0.222249 0.09525,-0.09525 0.232832,-0.09525 z"
         style="font-style:normal;font-variant:normal;font-weight:normal;font-stretch:normal;font-family:Quicksand;-inkscape-font-specification:Quicksand;stroke-width:0.264583"
         id="path905" />
      <path
         d="m 58.597327,97.228254 q -0.814914,0 -1.439329,-0.349249 -0.624415,-0.349249 -0.973664,-0.973663 -0.349248,-0.624415 -0.349248,-1.460496 0,-0.89958 0.349248,-1.534578 0.359833,-0.634998 0.920748,-0.973664 0.571498,-0.349248 1.206496,-0.349248 0.465665,0 0.89958,0.169332 0.444499,0.15875 0.783164,0.486832 0.338666,0.317499 0.550332,0.783164 0.211666,0.465665 0.222249,1.079497 0,0.126999 -0.09525,0.222249 -0.09525,0.08467 -0.22225,0.08467 h -4.243903 l -0.126999,-0.571499 h 4.16982 l -0.137583,0.127 v -0.211666 q -0.05292,-0.497415 -0.328083,-0.846664 -0.275165,-0.349249 -0.666748,-0.529165 -0.380998,-0.179916 -0.80433,-0.179916 -0.317499,0 -0.656165,0.127 -0.328082,0.126999 -0.603248,0.402165 -0.264582,0.264582 -0.433915,0.687914 -0.169333,0.412749 -0.169333,0.984247 0,0.624415 0.253999,1.132413 0.253999,0.507999 0.730248,0.804331 0.476248,0.296332 1.15358,0.296332 0.359832,0 0.656164,-0.105833 0.296332,-0.105833 0.518582,-0.275165 0.232832,-0.179916 0.380999,-0.370416 0.116416,-0.09525 0.222249,-0.09525 0.116416,0 0.190499,0.08467 0.08467,0.08467 0.08467,0.190499 0,0.127 -0.105833,0.22225 -0.317499,0.380998 -0.825498,0.666747 -0.507998,0.275166 -1.111246,0.275166 z"
         style="font-style:normal;font-variant:normal;font-weight:normal;font-stretch:normal;font-family:Quicksand;-inkscape-font-specification:Quicksand;stroke-width:0.264583"
         id="path907" />
      <path
         d="m 66.478081,89.29078 q 0.137583,0 0.22225,0.09525 0.09525,0.08467 0.09525,0.22225 v 7.196643 q 0,0.127 -0.09525,0.22225 -0.09525,0.09525 -0.22225,0.09525 -0.148166,0 -0.232832,-0.09525 -0.08467,-0.09525 -0.08467,-0.22225 V 95.54551 l 0.179916,-0.148167 q 0,0.296333 -0.158749,0.624415 -0.15875,0.317499 -0.455082,0.592665 -0.285749,0.275166 -0.677331,0.444498 -0.380999,0.169333 -0.836081,0.169333 -0.698498,0 -1.269996,-0.370415 -0.560915,-0.370416 -0.888997,-1.005414 -0.328082,-0.634998 -0.328082,-1.449912 0,-0.804331 0.328082,-1.439328 0.328082,-0.645582 0.888997,-1.005414 0.560915,-0.370415 1.259413,-0.370415 0.444499,0 0.836081,0.158749 0.391582,0.15875 0.687914,0.433915 0.306916,0.275166 0.476249,0.634998 0.179916,0.349249 0.179916,0.730248 l -0.22225,-0.15875 v -3.778237 q 0,-0.127 0.08467,-0.22225 0.08467,-0.09525 0.232832,-0.09525 z m -2.201326,7.344809 q 0.560915,0 0.99483,-0.285749 0.433915,-0.296332 0.677331,-0.793747 0.254,-0.507998 0.254,-1.15358 0,-0.634998 -0.254,-1.132413 -0.243416,-0.507998 -0.677331,-0.793747 -0.433915,-0.296333 -0.99483,-0.296333 -0.550332,0 -0.99483,0.296333 -0.433915,0.285749 -0.687915,0.793747 -0.243416,0.497415 -0.243416,1.132413 0,0.634998 0.243416,1.142997 0.254,0.507998 0.687915,0.80433 0.444498,0.285749 0.99483,0.285749 z"
         style="font-style:normal;font-variant:normal;font-weight:normal;font-stretch:normal;font-family:Quicksand;-inkscape-font-specification:Quicksand;stroke-width:0.264583"
         id="path909" />
      <path
         d="m 69.172192,97.122421 q -0.296332,0 -0.529164,-0.179916 -0.232833,-0.190499 -0.232833,-0.465665 v -6.117147 q 0,-0.275166 0.179916,-0.455082 0.190499,-0.190499 0.465665,-0.190499 h 3.04799 q 0.550332,0 1.026581,0.296332 0.486831,0.285749 0.783164,0.804331 0.296332,0.507998 0.296332,1.174746 0,0.402165 -0.169333,0.783164 -0.158749,0.380999 -0.444498,0.687915 -0.275166,0.306915 -0.624415,0.476248 l 0.01058,-0.243416 q 0.296333,0.15875 0.486832,0.380999 0.201083,0.211666 0.306916,0.465665 0.116416,0.243416 0.137583,0.529165 0.04233,0.264583 0.05292,0.465665 0.02117,0.201083 0.0635,0.338666 0.05292,0.137583 0.190499,0.211666 0.232833,0.137583 0.28575,0.402165 0.0635,0.253999 -0.116417,0.455082 -0.116416,0.137583 -0.296332,0.179916 -0.179916,0.03175 -0.359832,0 -0.179916,-0.04233 -0.296333,-0.105833 -0.179916,-0.105833 -0.359832,-0.306915 -0.179916,-0.211666 -0.296332,-0.560915 -0.105833,-0.349249 -0.105833,-0.899581 0,-0.179916 -0.0635,-0.328082 -0.0635,-0.15875 -0.179916,-0.264583 -0.116417,-0.116416 -0.296333,-0.169332 -0.179916,-0.0635 -0.423332,-0.0635 h -2.137826 l 0.158749,-0.243416 v 2.296576 q 0,0.275166 -0.148166,0.465665 -0.148166,0.179916 -0.412749,0.179916 z M 69.584941,93.3336 h 2.465909 q 0.190499,0 0.370415,-0.169333 0.179917,-0.179916 0.296333,-0.476248 0.116416,-0.306916 0.116416,-0.666748 0,-0.465665 -0.253999,-0.772581 -0.243416,-0.317499 -0.529165,-0.317499 h -2.444742 l 0.126999,-0.338666 v 2.995074 z"
         style="font-weight:bold"
         id="path911" />
      <path
         d="m 78.132445,97.228254 q -0.89958,0 -1.566328,-0.370415 -0.656165,-0.380999 -1.015997,-1.02658 -0.349249,-0.645582 -0.349249,-1.460496 0,-0.952497 0.380999,-1.619244 0.391582,-0.677332 1.015997,-1.037164 0.624414,-0.359832 1.322912,-0.359832 0.539749,0 1.015997,0.222249 0.486832,0.22225 0.857247,0.613832 0.370416,0.380998 0.582082,0.888997 0.222249,0.507998 0.222249,1.079496 -0.01058,0.254 -0.201083,0.412749 -0.190499,0.15875 -0.444498,0.15875 h -4.042821 l -0.317499,-1.05833 h 3.884071 l -0.232832,0.211666 v -0.28575 q -0.02117,-0.306915 -0.22225,-0.550331 -0.190499,-0.243416 -0.486831,-0.380999 -0.285749,-0.148166 -0.613832,-0.148166 -0.317499,0 -0.592665,0.08467 -0.275165,0.08467 -0.476248,0.285749 -0.201083,0.201083 -0.317499,0.539749 -0.116416,0.338665 -0.116416,0.857247 0,0.571498 0.232832,0.973664 0.243416,0.391582 0.613832,0.603248 0.380998,0.201082 0.80433,0.201082 0.391583,0 0.624415,-0.0635 0.232833,-0.0635 0.370416,-0.148167 0.148166,-0.09525 0.264582,-0.158749 0.1905,-0.09525 0.359832,-0.09525 0.232833,0 0.380999,0.15875 0.15875,0.158749 0.15875,0.370415 0,0.285749 -0.296333,0.518582 -0.275166,0.232832 -0.772581,0.412748 -0.497415,0.169333 -1.02658,0.169333 z"
         style="font-weight:bold"
         id="path913" />
      <path
         d="m 84.684335,91.354523 q 0.783164,0 1.18533,0.328082 0.412748,0.328083 0.560914,0.878414 0.15875,0.539748 0.15875,1.206496 v 2.709325 q 0,0.275166 -0.179916,0.465665 -0.179916,0.179916 -0.455082,0.179916 -0.275166,0 -0.455082,-0.179916 -0.179916,-0.190499 -0.179916,-0.465665 v -2.709325 q 0,-0.349249 -0.09525,-0.624414 -0.08467,-0.285749 -0.317499,-0.455082 -0.232832,-0.169333 -0.666748,-0.169333 -0.423332,0 -0.719664,0.169333 -0.285749,0.169333 -0.444499,0.455082 -0.148166,0.275165 -0.148166,0.624414 v 2.709325 q 0,0.275166 -0.179916,0.465665 -0.179916,0.179916 -0.455082,0.179916 -0.275165,0 -0.455082,-0.179916 -0.179916,-0.190499 -0.179916,-0.465665 v -4.370903 q 0,-0.275166 0.179916,-0.455082 0.179917,-0.190499 0.455082,-0.190499 0.275166,0 0.455082,0.190499 0.179916,0.179916 0.179916,0.455082 v 0.455082 l -0.158749,-0.03175 q 0.09525,-0.179916 0.275166,-0.380999 0.179916,-0.211666 0.423332,-0.391582 0.243415,-0.179916 0.550331,-0.285749 0.306916,-0.116416 0.666748,-0.116416 z"
         style="font-weight:bold"
         id="path915" />
      <path
         d="m 88.025516,91.566189 h 2.508242 q 0.253999,0 0.423332,0.169333 0.169332,0.169333 0.169332,0.423332 0,0.243416 -0.169332,0.412748 -0.169333,0.15875 -0.423332,0.15875 h -2.508242 q -0.254,0 -0.423332,-0.169333 -0.169333,-0.169333 -0.169333,-0.423332 0,-0.243416 0.169333,-0.402165 0.169332,-0.169333 0.423332,-0.169333 z m 1.132413,-1.322912 q 0.275165,0 0.444498,0.190499 0.179916,0.179916 0.179916,0.455082 v 4.709568 q 0,0.148166 0.05292,0.243416 0.0635,0.09525 0.158749,0.137583 0.105833,0.04233 0.22225,0.04233 0.126999,0 0.232832,-0.04233 0.105833,-0.05292 0.243416,-0.05292 0.148166,0 0.264583,0.137583 0.126999,0.137583 0.126999,0.380999 0,0.296332 -0.328082,0.486832 -0.317499,0.190499 -0.687915,0.190499 -0.222249,0 -0.497415,-0.03175 -0.264582,-0.04233 -0.507998,-0.179916 -0.232833,-0.148166 -0.391582,-0.444498 -0.15875,-0.296333 -0.15875,-0.814914 v -4.762485 q 0,-0.275166 0.179916,-0.455082 0.1905,-0.190499 0.465666,-0.190499 z"
         style="font-weight:bold"
         id="path917" />
      <path
         d="m 96.864722,91.354523 q 0.275165,0 0.455081,0.179916 0.179916,0.179916 0.179916,0.465665 v 4.476736 q 0,0.275166 -0.179916,0.465665 -0.179916,0.179916 -0.455081,0.179916 -0.275166,0 -0.455082,-0.179916 -0.179916,-0.190499 -0.179916,-0.465665 v -0.518582 l 0.232832,0.09525 q 0,0.137583 -0.148166,0.338666 -0.148166,0.190499 -0.402165,0.380998 -0.254,0.1905 -0.603249,0.328083 -0.338665,0.126999 -0.740831,0.126999 -0.730247,0 -1.322912,-0.370415 -0.592665,-0.380999 -0.941914,-1.037164 -0.338665,-0.666747 -0.338665,-1.523995 0,-0.86783 0.338665,-1.523995 0.349249,-0.666748 0.931331,-1.037163 0.582081,-0.380999 1.291162,-0.380999 0.455082,0 0.836081,0.137583 0.380999,0.137583 0.656165,0.349249 0.285749,0.211666 0.433915,0.433915 0.158749,0.211666 0.158749,0.359832 l -0.380998,0.137583 v -0.772581 q 0,-0.275166 0.179916,-0.455082 0.179916,-0.190499 0.455082,-0.190499 z m -2.137827,4.709568 q 0.465665,0 0.814914,-0.232832 0.349249,-0.232833 0.539748,-0.634998 0.201083,-0.402166 0.201083,-0.899581 0,-0.507998 -0.201083,-0.910164 -0.190499,-0.402165 -0.539748,-0.634997 -0.349249,-0.232833 -0.814914,-0.232833 -0.455082,0 -0.804331,0.232833 -0.349249,0.232832 -0.550331,0.634997 -0.1905,0.402166 -0.1905,0.910164 0,0.497415 0.1905,0.899581 0.201082,0.402165 0.550331,0.634998 0.349249,0.232832 0.804331,0.232832 z"
         style="font-weight:bold"
         id="path919" />
      <path
         d="m 100.25187,96.47684 q 0,0.275166 -0.1905,0.465665 -0.179913,0.179916 -0.455078,0.179916 -0.264583,0 -0.444499,-0.179916 -0.179916,-0.190499 -0.179916,-0.465665 v -6.540479 q 0,-0.275166 0.179916,-0.455082 0.190499,-0.190499 0.465665,-0.190499 0.275166,0 0.444502,0.190499 0.17991,0.179916 0.17991,0.455082 z"
         style="font-weight:bold"
         id="path921" />
      <path
         d="m 101.40049,96.244007 q -0.10583,-0.148166 -0.0953,-0.380998 0.0106,-0.232833 0.27517,-0.402166 0.16933,-0.105833 0.35983,-0.08467 0.1905,0.01058 0.37041,0.190499 0.30692,0.306916 0.64558,0.476249 0.33867,0.169332 0.84667,0.169332 0.15875,-0.01058 0.34925,-0.04233 0.1905,-0.04233 0.32808,-0.169332 0.14817,-0.137583 0.14817,-0.412749 0,-0.232833 -0.15875,-0.370416 -0.15875,-0.137583 -0.42334,-0.232832 -0.254,-0.09525 -0.57149,-0.179916 -0.32809,-0.09525 -0.67734,-0.211666 -0.33866,-0.116417 -0.62441,-0.296333 -0.28575,-0.190499 -0.46567,-0.497415 -0.17991,-0.306916 -0.17991,-0.772581 0,-0.529165 0.29633,-0.89958 0.29633,-0.370416 0.762,-0.571498 0.47625,-0.201083 0.99483,-0.201083 0.32808,0 0.68791,0.08467 0.35984,0.07408 0.68792,0.254 0.32808,0.169332 0.55033,0.455081 0.11642,0.15875 0.13758,0.380999 0.0212,0.22225 -0.20108,0.402166 -0.15875,0.126999 -0.37042,0.116416 -0.21166,-0.02117 -0.34924,-0.148166 -0.17992,-0.232833 -0.48684,-0.370416 -0.29633,-0.137583 -0.68791,-0.137583 -0.15875,0 -0.34925,0.04233 -0.17992,0.03175 -0.3175,0.158749 -0.13758,0.116416 -0.13758,0.380999 0,0.243416 0.15875,0.391582 0.15875,0.137583 0.42333,0.232832 0.27517,0.08467 0.58208,0.169333 0.3175,0.08467 0.64558,0.201083 0.32808,0.116416 0.60325,0.306916 0.27517,0.190499 0.4445,0.497415 0.16933,0.296332 0.16933,0.761997 0,0.539749 -0.3175,0.920747 -0.3175,0.380999 -0.79374,0.582082 -0.47625,0.190499 -0.97367,0.190499 -0.62441,0 -1.24883,-0.211666 -0.62441,-0.222249 -1.03716,-0.772581 z"
         style="font-weight:bold"
         id="path923" />
    </g>
  </g>
</svg>
