<?xml version="1.0" encoding="UTF-8"?>
<svg id="Layer_2" data-name="Layer 2" xmlns="http://www.w3.org/2000/svg" viewBox="0 0 158.4 17.25">
  <defs>
    <style>
      .cls-1 {
        fill: #00adbb;
      }
    </style>
  </defs>
  <g id="Layer_1-2" data-name="Layer 1">
    <path d="m24.06,0h6.27c1.8,0,3.26.43,4.38,1.3,1.12.87,1.67,2.07,1.67,3.62s-.46,2.64-1.38,3.47c-.9.82-2.06,1.28-3.47,1.38l-.95.23h-3.6v7h-2.92V0Zm5.42,8.68h2.98l4.45,8.32h-3.25l-4.18-8.32Zm.65-.75c1.08,0,1.91-.24,2.48-.73.58-.5.88-1.22.88-2.18s-.29-1.7-.88-2.2c-.57-.5-1.39-.75-2.48-.75h-3.15v5.85h3.15Zm11.42,9.22c-1.03,0-1.87-.29-2.5-.88-.63-.6-.95-1.38-.95-2.35,0-1.15.39-2.02,1.18-2.62.78-.6,1.88-.98,3.3-1.15.88-.1,1.77-.17,2.65-.2v-1.05c0-.7-.16-1.22-.47-1.55-.32-.35-.78-.53-1.38-.53-.57,0-1.06.18-1.47.53-.42.35-.73.81-.93,1.38l-2.35-.58c.35-1,.95-1.76,1.8-2.27.85-.52,1.88-.77,3.08-.77,1.37,0,2.45.32,3.25.97.8.65,1.2,1.61,1.2,2.88v4.53c0,.87.08,2.04.22,3.52h-2.62c-.13-.78-.21-1.49-.22-2.12h.17c-.35.63-.88,1.17-1.58,1.62-.7.43-1.49.65-2.38.65Zm.92-1.8c.57,0,1.09-.16,1.58-.48.5-.32.89-.73,1.17-1.25v-2.15c-.73.03-1.47.11-2.2.23-.72.12-1.27.35-1.65.7-.38.33-.58.78-.58,1.35,0,.5.15.89.45,1.17.3.28.71.43,1.22.43Zm12.5,1.8c-1.38,0-2.42-.31-3.1-.92-.67-.62-1-1.62-1-3.02v-5.95h-1.67v-1.95h1.12c.32,0,.55-.09.7-.28.15-.18.25-.53.3-1.05l.2-2.08h2.22v3.4h2.75v1.95h-2.75v5.9c0,.75.15,1.29.45,1.62s.76.5,1.38.5c.42,0,.8-.04,1.15-.12v1.77c-.2.07-.47.12-.8.15-.33.05-.65.07-.95.07Zm8.31.1c-1.12,0-2.11-.25-2.97-.75-.87-.52-1.54-1.23-2.03-2.15-.48-.92-.72-1.98-.72-3.2s.24-2.31.72-3.22c.48-.92,1.16-1.62,2.03-2.12.87-.5,1.86-.75,2.97-.75,1.03,0,1.96.22,2.77.68.82.45,1.45,1.09,1.9,1.92.45.83.68,1.8.68,2.9,0,.43,0,.75-.03.95h-8.92v-1.52h6.48l-.33.75c.02-.15.03-.33.03-.53,0-.95-.22-1.77-.65-2.45-.42-.68-1.05-1.02-1.9-1.02-.63,0-1.17.19-1.6.57-.42.37-.73.88-.93,1.55-.2.67-.3,1.43-.3,2.3s.1,1.61.3,2.27c.2.65.51,1.16.93,1.53.43.37.97.55,1.6.55.72,0,1.29-.2,1.73-.6.43-.42.76-.95.97-1.6l2.25.6c-.35,1.02-.96,1.83-1.83,2.45-.85.6-1.9.9-3.15.9Zm11.4,0c-.9,0-1.71-.23-2.42-.7-.72-.48-1.28-1.17-1.7-2.07-.4-.92-.6-2.02-.6-3.33s.22-2.38.68-3.3c.45-.92,1.06-1.61,1.82-2.08.77-.48,1.62-.72,2.55-.72.98,0,1.82.24,2.5.72.7.47,1.17,1.06,1.42,1.78l-.4-.03V0h2.88v17h-2.77v-2.3h.22c-.37.73-.9,1.34-1.6,1.82-.7.48-1.56.73-2.58.73Zm.97-1.85c.63,0,1.21-.21,1.73-.62s.9-.93,1.15-1.55v-4.2c-.18-.65-.52-1.18-1.02-1.6-.5-.42-1.09-.62-1.78-.62-.88,0-1.57.38-2.05,1.12-.48.73-.72,1.81-.72,3.22s.23,2.46.7,3.18c.47.72,1.13,1.07,2,1.07ZM84.29,0h6.27c1.8,0,3.26.43,4.38,1.3,1.12.87,1.68,2.07,1.68,3.62s-.46,2.64-1.38,3.47c-.9.82-2.06,1.28-3.47,1.38l-.95.23h-3.6v7h-2.92V0Zm5.42,8.68h2.97l4.45,8.32h-3.25l-4.18-8.32Zm.65-.75c1.08,0,1.91-.24,2.47-.73.58-.5.88-1.22.88-2.18s-.29-1.7-.88-2.2c-.57-.5-1.39-.75-2.47-.75h-3.15v5.85h3.15Zm13.4,9.32c-1.12,0-2.11-.25-2.97-.75-.87-.52-1.54-1.23-2.03-2.15s-.73-1.98-.73-3.2.24-2.31.73-3.22c.48-.92,1.16-1.62,2.03-2.12.87-.5,1.86-.75,2.97-.75,1.03,0,1.96.22,2.78.68.82.45,1.45,1.09,1.9,1.92.45.83.67,1.8.67,2.9,0,.43,0,.75-.03.95h-8.92v-1.52h6.47l-.32.75c.02-.15.02-.33.02-.53,0-.95-.22-1.77-.65-2.45-.42-.68-1.05-1.02-1.9-1.02-.63,0-1.17.19-1.6.57-.42.37-.73.88-.93,1.55-.2.67-.3,1.43-.3,2.3s.1,1.61.3,2.27c.2.65.51,1.16.93,1.53.43.37.97.55,1.6.55.72,0,1.29-.2,1.72-.6.43-.42.76-.95.97-1.6l2.25.6c-.35,1.02-.96,1.83-1.82,2.45-.85.6-1.9.9-3.15.9Zm7.3-11.95h2.78v2.4l-.15-.2c.38-.7.94-1.28,1.67-1.75.73-.47,1.56-.7,2.48-.7,1.22,0,2.12.36,2.72,1.07.62.72.92,1.72.92,3v7.88h-2.88v-7.45c0-.82-.17-1.43-.5-1.82-.33-.42-.8-.62-1.4-.62-.57,0-1.11.19-1.62.57-.52.38-.91.87-1.18,1.45v7.88h-2.85V5.3Zm17.57,11.85c-1.38,0-2.42-.31-3.1-.92-.67-.62-1-1.62-1-3.02v-5.95h-1.67v-1.95h1.12c.32,0,.55-.09.7-.28.15-.18.25-.53.3-1.05l.2-2.08h2.22v3.4h2.75v1.95h-2.75v5.9c0,.75.15,1.29.45,1.62.3.33.76.5,1.37.5.42,0,.8-.04,1.15-.12v1.77c-.2.07-.47.12-.8.15-.33.05-.65.07-.95.07Zm6.31,0c-1.03,0-1.87-.29-2.5-.88-.63-.6-.95-1.38-.95-2.35,0-1.15.39-2.02,1.17-2.62.78-.6,1.88-.98,3.3-1.15.88-.1,1.77-.17,2.65-.2v-1.05c0-.7-.16-1.22-.48-1.55-.32-.35-.77-.53-1.38-.53-.57,0-1.06.18-1.48.53-.42.35-.72.81-.92,1.38l-2.35-.58c.35-1,.95-1.76,1.8-2.27.85-.52,1.88-.77,3.07-.77,1.37,0,2.45.32,3.25.97.8.65,1.2,1.61,1.2,2.88v4.53c0,.87.07,2.04.23,3.52h-2.62c-.13-.78-.21-1.49-.23-2.12h.18c-.35.63-.88,1.17-1.57,1.62-.7.43-1.49.65-2.38.65Zm.93-1.8c.57,0,1.09-.16,1.57-.48.5-.32.89-.73,1.18-1.25v-2.15c-.73.03-1.47.11-2.2.23-.72.12-1.27.35-1.65.7-.38.33-.57.78-.57,1.35,0,.5.15.89.45,1.17.3.28.71.43,1.23.43Zm7.97-15.35h2.85v17h-2.85V0Zm9.87,17.25c-1.27,0-2.34-.23-3.22-.7-.88-.48-1.49-1.18-1.83-2.1l2.18-.65c.25.58.62,1.03,1.1,1.35.5.3,1.12.45,1.85.45.67,0,1.19-.14,1.58-.43.4-.3.6-.68.6-1.15s-.18-.79-.55-1.02c-.37-.25-1.04-.48-2.02-.67-1.52-.3-2.62-.73-3.32-1.3-.7-.58-1.05-1.38-1.05-2.4,0-.72.19-1.34.57-1.88.4-.55.94-.97,1.62-1.25.68-.3,1.46-.45,2.32-.45,1.08,0,2.03.22,2.85.68.82.43,1.38,1.06,1.68,1.88l-2.15.62c-.22-.5-.52-.88-.92-1.15-.4-.27-.91-.4-1.53-.4s-1.11.13-1.47.4c-.37.27-.55.62-.55,1.07,0,.42.2.74.6.98.42.23,1.13.46,2.15.68,1.5.32,2.57.76,3.22,1.32.67.57,1,1.38,1,2.45s-.44,1.97-1.32,2.65c-.87.68-1.99,1.02-3.38,1.02Z"/>
    <polygon class="cls-1" points="8 0 0 5.67 0 17 6 17 6 12 10 12 10 17 16 17 16 5.67 8 0"/>
  </g>
</svg>