<svg width="19" height="20" viewBox="0 0 19 20" fill="none" xmlns="http://www.w3.org/2000/svg">
<path fill-rule="evenodd" clip-rule="evenodd" d="M14.319 13.4577C16.7628 10.3192 16.542 5.77856 13.6569 2.89338C10.5327 -0.230816 5.46734 -0.230816 2.34315 2.89338C-0.78105 6.01758 -0.78105 11.0829 2.34315 14.2071C5.22833 17.0923 9.769 17.313 12.9075 14.8693C12.921 14.8846 12.9351 14.8996 12.9497 14.9142L17.1924 19.1568C17.5829 19.5474 18.2161 19.5474 18.6066 19.1568C18.9971 18.7663 18.9971 18.1332 18.6066 17.7426L14.364 13.5C14.3493 13.4854 14.3343 13.4713 14.319 13.4577ZM12.2426 4.3076C14.5858 6.65074 14.5858 10.4497 12.2426 12.7929C9.8995 15.136 6.1005 15.136 3.75736 12.7929C1.41421 10.4497 1.41421 6.65074 3.75736 4.3076C6.1005 1.96445 9.8995 1.96445 12.2426 4.3076Z" fill="#C4C4C4"/>
</svg>
