<?xml version="1.0" encoding="UTF-8" standalone="no"?>
<svg
   width="10.794148"
   height="15.14633"
   viewBox="0 0 10.794148 15.14633"
   fill="none"
   version="1.1"
   id="svg286"
   sodipodi:docname="map-marker.svg"
   inkscape:version="1.2 (dc2aeda, 2022-05-15)"
   inkscape:export-filename="map-marker.svg"
   inkscape:export-xdpi="96"
   inkscape:export-ydpi="96"
   xmlns:inkscape="http://www.inkscape.org/namespaces/inkscape"
   xmlns:sodipodi="http://sodipodi.sourceforge.net/DTD/sodipodi-0.dtd"
   xmlns="http://www.w3.org/2000/svg"
   xmlns:svg="http://www.w3.org/2000/svg">
  <defs
     id="defs290" />
  <sodipodi:namedview
     id="namedview288"
     pagecolor="#505050"
     bordercolor="#eeeeee"
     borderopacity="1"
     inkscape:showpageshadow="0"
     inkscape:pageopacity="0"
     inkscape:pagecheckerboard="0"
     inkscape:deskcolor="#505050"
     showgrid="false"
     inkscape:zoom="22.597793"
     inkscape:cx="1.1948069"
     inkscape:cy="6.1510431"
     inkscape:window-width="1440"
     inkscape:window-height="760"
     inkscape:window-x="0"
     inkscape:window-y="25"
     inkscape:window-maximized="1"
     inkscape:current-layer="svg286" />
  <path
     d="M 5.397058,0.5 C 2.693478,0.5 0.5,2.58771 0.5,5.15901 c 0,2.95864 3.264708,7.64722 4.463468,9.26662 0.04976,0.0684 0.11497,0.124 0.19033,0.1624 0.07535,0.0383 0.15871,0.0583 0.24326,0.0583 0.08455,0 0.16791,-0.02 0.24326,-0.0583 0.07536,-0.0384 0.14057,-0.094 0.19033,-0.1624 1.19876,-1.6187 4.4635,-6.3056 4.4635,-9.26662 0,-2.5713 -2.19351,-4.65901 -4.89709,-4.65901 z"
     fill="#000000"
     stroke="#000000"
     stroke-linecap="round"
     stroke-linejoin="round"
     id="path282" />
  <path
     d="m 5.396998,7.02942 c 0.90153,0 1.63236,-0.73083 1.63236,-1.63236 0,-0.90152 -0.73083,-1.63235 -1.63236,-1.63235 -0.90152,0 -1.63235,0.73083 -1.63235,1.63235 0,0.90153 0.73083,1.63236 1.63235,1.63236 z"
     fill="#ffffff"
     stroke="#ffffff"
     stroke-width="0.90625"
     stroke-linecap="round"
     stroke-linejoin="round"
     id="path284" />
</svg>
