<svg width="128" height="128" viewBox="0 0 128 128" fill="none" xmlns="http://www.w3.org/2000/svg">
<path d="M84 32L64 12M64 12L44 32M64 12V80.25M84 48H94C96.6522 48 99.1957 49.0536 101.071 50.9289C102.946 52.8043 104 55.3478 104 58V106C104 108.652 102.946 111.196 101.071 113.071C99.1957 114.946 96.6522 116 94 116H34C31.3478 116 28.8043 114.946 26.9289 113.071C25.0536 111.196 24 108.652 24 106V58C24 55.3478 25.0536 52.8043 26.9289 50.9289C28.8043 49.0536 31.3478 48 34 48H44H84Z" stroke="black" stroke-width="8" stroke-linecap="round" stroke-linejoin="round"/>
</svg>
