<svg width="41" height="51" viewBox="0 0 41 51" fill="none" xmlns="http://www.w3.org/2000/svg">
<path d="M18.0986 50.5814C11.831 50.1912 6.07414 48.3554 2.95165 45.7512C-0.215637 43.1095 0.08961 39.7102 3.65486 37.9204C5.53432 36.977 8.43209 36.3156 12.1983 35.9706C12.8045 35.915 13.478 35.8533 13.6949 35.8333C14.0882 35.7972 14.09 35.7978 14.2688 36.0323C14.3675 36.1616 14.4372 36.2784 14.4238 36.2919C14.4104 36.3053 13.8833 36.3911 13.2525 36.4825C9.50801 37.0253 6.3754 38.0054 4.48285 39.2261C3.90086 39.6015 3.15864 40.3493 2.95551 40.7651C2.7346 41.2171 2.7341 41.9336 2.95442 42.3535C3.67364 43.7245 5.89854 44.9177 9.34554 45.781C12.3695 46.5384 15.4812 46.9128 19.4599 46.9979C27.589 47.1719 35.1962 45.5046 37.4979 43.0444C38.1467 42.3509 38.3363 41.7793 38.1408 41.1068C37.7712 39.8354 36.0321 38.6671 33.0433 37.6823C31.3491 37.1241 30.2284 36.8826 26.8367 36.3451L26.4979 36.2914L26.9163 35.7955L28.0834 35.8994C33.0865 36.3447 36.252 37.1238 38.1433 38.3752C38.6846 38.7334 39.3933 39.4287 39.6483 39.8517C41.519 42.9554 38.8282 46.3956 32.7835 48.6279C28.6176 50.1664 23.1396 50.8952 18.0986 50.5814ZM19.8418 40.8547C14.0451 34.2868 8.84568 26.9092 6.67109 22.1658C5.25669 19.0814 4.78086 17.0291 4.96299 14.7985C5.14334 12.5896 5.59432 10.949 6.55801 8.99571C8.82175 4.40741 13.0993 1.30424 18.2797 0.492498C19.3143 0.330363 21.6342 0.331186 22.7022 0.49406C26.185 1.0252 29.2467 2.60038 31.6826 5.11367C33.5721 7.06367 34.8498 9.3337 35.5392 11.9655C35.9197 13.4183 35.9854 13.9493 35.9898 15.6088C35.9933 16.9295 35.9767 17.1797 35.8446 17.7969C35.3341 20.1805 33.9826 23.1875 31.8885 26.5984C29.397 30.6568 25.5772 35.7564 21.6937 40.2087C21.2143 40.7584 20.748 41.2945 20.6575 41.4001L20.493 41.5921L19.8418 40.8547ZM22.2157 22.1924C25.5666 21.374 27.8976 18.7038 28.2453 15.2854C28.4019 13.7455 28.0087 11.9813 27.2142 10.6593C25.639 8.03847 22.8877 6.60528 19.865 6.83104C17.9314 6.97545 16.2279 7.791 14.8523 9.231C14.2506 9.86088 13.912 10.3371 13.5445 11.0705C12.9359 12.2851 12.7244 13.184 12.721 14.5716C12.7183 15.624 12.8138 16.2381 13.1192 17.1326C14.0141 19.7542 16.428 21.8194 19.1035 22.2524C19.371 22.2957 19.6335 22.3417 19.687 22.3547C19.9847 22.4267 21.7088 22.3162 22.2157 22.1924Z" fill="url(#paint0_linear_2669_669)"/>
<defs>
<linearGradient id="paint0_linear_2669_669" x1="-1.08756" y1="47.4903" x2="30.7431" y2="54.0483" gradientUnits="userSpaceOnUse">
<stop stop-color="#00E691"/>
<stop offset="1" stop-color="#04D7CA"/>
</linearGradient>
</defs>
</svg>
